PathFileType	4	(X/Y/Z)	./resultDataOpenSim/trcMotMarkerGrf/sub09/qtm-14-02.trc
DataRate	CameraRate	NumFrames	NumMarkers	Units	OrigDataRate	OrigDataStartFrame	OrigNumFrames
250.000000	250.000000	12	24	m	250.000000	1	496
Frame#	Time	L.Toe.Tip			R.Toe.Tip			L.Ankle.Lat			R.Ankle.Lat			L.Ankle.Med			R.Ankle.Med			L.Heel			R.Heel			L.Knee.Lat			R.Knee.Lat			L.Knee.Med			R.Knee.Med			L.Thigh.Upper			R.Thigh.Upper			L.ASIS			R.ASIS			V.Sacral			L.Acromium			R.Acromium			C7			L.Elbow			R.Elbow			L.Wrist.Lat			R.Wrist.Lat
		X1	Y1	Z1	X2	Y2	Z2	X3	Y3	Z3	X4	Y4	Z4	X5	Y5	Z5	X6	Y6	Z6	X7	Y7	Z7	X8	Y8	Z8	X9	Y9	Z9	X10	Y10	Z10	X11	Y11	Z11	X12	Y12	Z12	X13	Y13	Z13	X14	Y14	Z14	X15	Y15	Z15	X16	Y16	Z16	X17	Y17	Z17	X18	Y18	Z18	X19	Y19	Z19	X20	Y20	Z20	X21	Y21	Z21	X22	Y22	Z22	X23	Y23	Z23	X24	Y24	Z24

1	0	-1.4997841	0.036337141	-0.0074370962	-0.88304285	0.11087758	0.10145838	-1.6511677	0.080094927	-0.030008568	-1.033563	0.076490465	0.12182588	-1.6189911	0.096373778	0.062158241	-1.0214474	0.12171149	0.034391757	NaN	NaN	NaN	-1.0783348	0.035259105	0.062354106	-1.5047705	0.47085196	-0.096968053	-1.1464732	0.52031132	0.17767776	-1.4954249	0.47177067	0.027880054	-1.1445845	0.50504966	0.050079827	-1.4066255	0.88113892	-0.14713408	-1.3498705	0.86980688	0.22030653	-1.3001686	0.95599489	-0.1011641	-1.2721758	0.95636481	0.13844619	-1.4471184	1.0159642	0.046581414	-1.2662582	1.4101806	-0.12817172	-1.2799917	1.411146	0.20003868	-1.333312	1.465835	0.037325775	-1.3819498	1.0516036	-0.20730198	-1.4444573	1.0814308	0.26888356	-1.1328909	0.93579787	-0.20725604	-1.3303549	0.83433367	0.28463138
2	0.004	-1.4997459	0.036316827	-0.0074756771	-0.86763695	0.1153755	0.10201636	-1.651022	0.080823016	-0.029784011	-1.0173455	0.077670943	0.12187862	-1.6183193	0.096958942	0.062215277	-1.0062056	0.12324538	0.034439041	NaN	NaN	NaN	-1.0610276	0.03535481	0.062767695	-1.5023382	0.4709428	-0.097047173	-1.1409598	0.51873226	0.17746524	-1.4928121	0.47173702	0.02780617	-1.1382152	0.50352943	0.049811596	-1.4008864	0.88009993	-0.14706281	-1.3443029	0.86803094	0.22008136	-1.2940131	0.95464262	-0.10123419	-1.2658772	0.95487769	0.13847724	-1.4409762	1.0144032	0.046625529	-1.2602923	1.4089079	-0.12797998	-1.2743819	1.4097737	0.20018973	-1.3277989	1.4642809	0.037078746	-1.3749891	1.050392	-0.20683378	-1.4370523	1.0806986	0.27029632	-1.1252849	0.9362318	-0.20707374	-1.3262129	0.83261839	0.28515131
3	0.008	-1.4997083	0.036292916	-0.0075128077	-0.85254575	0.11986211	0.10249316	-1.6508496	0.081584982	-0.029608128	-1.0010759	0.079023672	0.12208242	-1.6176364	0.097609001	0.062218757	-0.99125228	0.12478665	0.034476559	NaN	NaN	NaN	-1.0440445	0.035544807	0.063228005	-1.4997917	0.47101377	-0.097163435	-1.1352476	0.51713318	0.17724939	-1.4901361	0.47169362	0.027718515	-1.1318408	0.50202499	0.049552373	-1.3951224	0.87904206	-0.14697889	-1.3386671	0.86624936	0.21985715	-1.2878815	0.95329059	-0.10131747	-1.2595207	0.95340306	0.13850861	-1.4347997	1.0128441	0.046667527	-1.2542943	1.4076273	-0.12777913	-1.2687649	1.4083898	0.20037601	-1.3222615	1.4627354	0.036787682	-1.3681433	1.049045	-0.20660571	-1.4301062	1.0797918	0.27114242	-1.1177027	0.93662868	-0.20689871	-1.3219449	0.83088574	0.28567512
4	0.012	-1.4996695	0.036265404	-0.0075527114	-0.83795441	0.12432898	0.10281023	-1.6506102	0.082412071	-0.02953812	-0.98467132	0.080660163	0.12255253	-1.6169499	0.098327854	0.062136413	-0.97674179	0.12634062	0.03449857	NaN	NaN	NaN	-1.0276132	0.035869092	0.063656799	-1.4970555	0.47105323	-0.097330286	-1.129327	0.51554873	0.17702646	-1.4873293	0.47163986	0.027610596	-1.1254641	0.50052593	0.049310671	-1.3893168	0.87795775	-0.14687403	-1.3328168	0.86444352	0.21967095	-1.2817677	0.95193464	-0.10141951	-1.2530623	0.95194326	0.1385361	-1.4285697	1.0112877	0.046714441	-1.248241	1.4063355	-0.12756477	-1.2631136	1.4069888	0.20059261	-1.3166326	1.4612643	0.036587388	-1.3614191	1.047511	-0.20664851	-1.423879	1.0786649	0.27122603	-1.1101454	0.93696874	-0.20673055	-1.3174885	0.82914003	0.28620241
5	0.016	-1.4996263	0.036238424	-0.0076009099	-0.82394262	0.12873002	0.1029427	-1.6502737	0.083314218	-0.029603767	-0.96841461	0.082489555	0.12317501	-1.6162766	0.099074301	0.061966838	-0.96272971	0.12790401	0.034491537	NaN	NaN	NaN	-1.01182	0.036309986	0.063954283	-1.4941167	0.47105519	-0.09754092	-1.1235205	0.51398779	0.17676298	-1.4843858	0.47157592	0.02748913	-1.1191067	0.49901646	0.049092325	-1.3834817	0.87685291	-0.14675174	-1.3266821	0.86261436	0.21954823	-1.2756527	0.95057375	-0.10153533	-1.2465025	0.95049564	0.13855567	-1.4223103	1.0097357	0.046783809	-1.2421398	1.4050361	-0.12734016	-1.2574168	1.4055774	0.20082028	-1.3108822	1.4599093	0.036600612	-1.3547721	1.0458194	-0.20686064	-1.4181739	1.0773942	0.27087629	-1.1026128	0.93725083	-0.20656375	-1.3128931	0.82740801	0.28673367
6	0.02	-1.4995762	0.036216578	-0.0076602765	-0.81051821	0.13297985	0.10292727	-1.6498393	0.084286498	-0.029791003	-0.95293897	0.084243639	0.12363895	-1.6156091	0.099837732	0.061724201	-0.94921334	0.12946613	0.034437911	NaN	NaN	NaN	-0.99663159	0.036823204	0.064086991	-1.4909987	0.47101727	-0.097784314	-1.1180995	0.51241031	0.17645398	-1.4813164	0.47150851	0.027357251	-1.1127704	0.49750276	0.048905715	-1.3776346	0.87573639	-0.14662311	-1.320323	0.86078309	0.2194737	-1.269514	0.94921364	-0.10165282	-1.2398647	0.94905392	0.13856821	-1.4160492	1.0081871	0.046885467	-1.2360062	1.403735	-0.12711155	-1.2516716	1.4041656	0.20105613	-1.3050353	1.4586318	0.036786133	-1.3481665	1.0440578	-0.20715903	-1.4125685	1.0760664	0.27054054	-1.0951033	0.93747752	-0.20639872	-1.3082426	0.82570949	0.28726954
7	0.024	-1.4995185	0.036201839	-0.0077304012	-0.79766651	0.13697818	0.10280924	-1.6493283	0.085321103	-0.030067515	-0.93864584	0.085725396	0.12374945	-1.6149194	0.10065407	0.061418086	-0.93619818	0.13100621	0.034331001	NaN	NaN	NaN	-0.98203777	0.037369153	0.064051371	-1.4877342	0.47094329	-0.09804673	-1.1125934	0.51084998	0.17624954	-1.4780857	0.47145318	0.027200001	-1.1064242	0.49601917	0.048762064	-1.3717818	0.87461775	-0.14649694	-1.3138298	0.85897102	0.21941689	-1.2633418	0.94786845	-0.10176156	-1.2331811	0.94761559	0.13857528	-1.409787	1.0066439	0.04700962	-1.2298466	1.40244	-0.12687766	-1.2458669	1.4027591	0.20130352	-1.299126	1.4573741	0.037039982	-1.3415701	1.0423409	-0.20747802	-1.4068308	1.0747262	0.27040137	-1.0876248	0.93764362	-0.20624158	-1.3035495	0.82404688	0.28780047
8	0.028	-1.4994511	0.036194135	-0.0078072429	-0.78537959	0.1406284	0.10261207	-1.6487646	0.086405656	-0.030409967	-0.92545135	0.086947589	0.12352527	-1.6141938	0.10154627	0.061050501	-0.92371386	0.13249729	0.03417442	NaN	NaN	NaN	-0.96810064	0.037925325	0.063846345	-1.484354	0.47083871	-0.098312083	-1.1060377	0.50942929	0.1763693	-1.4746473	0.47140913	0.026999736	-1.1000161	0.49461573	0.048663625	-1.3659171	0.87351067	-0.14637512	-1.3072564	0.8571916	0.21935368	-1.2571421	0.94655687	-0.10186014	-1.2264819	0.94618667	0.13857611	-1.403508	1.0051165	0.047140237	-1.2236582	1.4011557	-0.12662763	-1.2400005	1.4013571	0.20156107	-1.2931729	1.4561114	0.037300562	-1.3349394	1.0407325	-0.20773635	-1.4009348	1.0733969	0.27045265	-1.0801902	0.9377426	-0.2060917	-1.2987624	0.82241638	0.28831463
9	0.032	-1.4993698	0.036192431	-0.0078872992	-0.77366888	0.14385071	0.10236023	-1.6481573	0.087526222	-0.030809394	-0.9131157	0.088025247	0.12301146	-1.6134352	0.10249834	0.060621734	-0.91173903	0.13391541	0.033980556	NaN	NaN	NaN	-0.95488622	0.038475172	0.063466661	-1.4808831	0.4706944	-0.09856497	-1.0982065	0.50820236	0.1768219	-1.4709726	0.47134359	0.026753067	-1.0934856	0.49334087	0.048599617	-1.3600304	0.8724307	-0.1462511	-1.3006143	0.85544612	0.21927847	-1.2509209	0.94529436	-0.10195104	-1.2197878	0.944774	0.13857234	-1.3972006	1.0036176	0.047271437	-1.2174411	1.3998845	-0.12635833	-1.2341005	1.399956	0.20182427	-1.2871866	1.4548441	0.037553974	-1.3282475	1.03922	-0.20788346	-1.3949222	1.0720867	0.27063632	-1.0728014	0.93777761	-0.2059421	-1.2938717	0.82081419	0.28881929
10	0.036	-1.4992704	0.036195455	-0.0079744361	-0.76257375	0.14659928	0.1021146	-1.6475003	0.088680349	-0.031262286	-0.90152645	0.089018404	0.12219855	-1.612649	0.10349175	0.060132376	-0.90025281	0.13522229	0.033758448	NaN	NaN	NaN	-0.94241581	0.039004338	0.062882636	-1.4773328	0.47048352	-0.098786485	-1.0898834	0.50710433	0.17737785	-1.4670562	0.47121205	0.026470803	-1.0867697	0.49222631	0.048556507	-1.3541137	0.87138975	-0.14611267	-1.2938603	0.85372449	0.21921351	-1.2446656	0.94408467	-0.10202971	-1.2131132	0.94338144	0.13856508	-1.3908685	1.0021509	0.047410687	-1.2112032	1.3986321	-0.12608366	-1.2282019	1.3985596	0.20208822	-1.281175	1.4535773	0.037804126	-1.3215043	1.0377661	-0.20793424	-1.3888475	1.0707842	0.2708674	-1.0654491	0.93775996	-0.20579045	-1.2889645	0.8192367	0.28934076
11	0.04	-1.4991503	0.036203464	-0.0080793113	-0.75215257	0.14885966	0.10195284	-1.6467857	0.089882792	-0.031770486	-0.8906788	0.089859379	0.12115781	-1.611844	0.10452636	0.059584418	-0.88941619	0.13633687	0.033489647	NaN	NaN	NaN	-0.9306745	0.039504686	0.062056425	-1.473669	0.47019455	-0.098963273	-1.0817864	0.50607454	0.17783904	-1.4629435	0.47099227	0.026169775	-1.0798104	0.49128081	0.048528763	-1.3481612	0.8703925	-0.14594683	-1.2868795	0.85201612	0.21921073	-1.238347	0.9429173	-0.10208611	-1.2064667	0.94201172	0.13854811	-1.3845278	1.0007077	0.047569509	-1.2049479	1.3974057	-0.12581264	-1.2223153	1.3971781	0.20235183	-1.2751426	1.4523147	0.038054792	-1.3147363	1.0363517	-0.20793302	-1.3827584	1.0694805	0.2710677	-1.0581302	0.93769797	-0.2056407	-1.284154	0.81768116	0.28989888
12	0.044	-1.4990118	0.036217075	-0.008207044	-0.74244725	0.15061644	0.1018996	-1.6460122	0.091151842	-0.032349239	-0.88057358	0.09040172	0.12010275	-1.6110256	0.1056078	0.058983047	-0.87944261	0.1371645	0.033148994	NaN	NaN	NaN	-0.91967183	0.039932125	0.06102308	-1.4697618	0.46986735	-0.09910697	-1.0739764	0.50511977	0.17816576	-1.4586924	0.47069847	0.025857769	-1.072566	0.49049353	0.04851854	-1.3421658	0.86943603	-0.14574406	-1.279543	0.85032192	0.2193299	-1.2319385	0.94177707	-0.10211527	-1.1998438	0.94066104	0.13851757	-1.3781849	0.99927871	0.047751275	-1.1986692	1.3962094	-0.12553254	-1.2164291	1.3958185	0.20261853	-1.2690898	1.4510621	0.038308792	-1.3079594	1.034978	-0.20790619	-1.3766824	1.0681855	0.27120244	-1.050852	0.93759018	-0.20549444	-1.2794508	0.81614428	0.29048669
